<?xml version="1.0" encoding="utf-8"?>
<!-- Generator: Adobe Illustrator 15.1.0, SVG Export Plug-In . SVG Version: 6.00 Build 0)  -->
<!DOCTYPE svg PUBLIC "-//W3C//DTD SVG 1.1//EN" "http://www.w3.org/Graphics/SVG/1.1/DTD/svg11.dtd">
<svg version="1.1" id="Layer_1" xmlns="http://www.w3.org/2000/svg" xmlns:xlink="http://www.w3.org/1999/xlink" x="0px" y="0px"
	 width="120px" height="43.518px" viewBox="-6.281 -3.756 120 43.518" enable-background="new -6.281 -3.756 120 43.518"
	 xml:space="preserve">
<g>
	<g>
		<path fill="#FFFFFF" d="M-3.747,16.258c1.44,0,2.533,1.093,2.533,2.484v0.05c1.441-1.689,3.678-2.535,6.112-2.535
			c1.689,0,3.279,0.348,4.67,1.193c1.143,0.696,2.038,1.64,2.584,2.782c0.646-0.993,1.59-2.137,2.982-2.932
			c1.292-0.745,2.832-1.043,4.522-1.043c2.334,0,4.62,0.645,6.26,2.187c1.49,1.391,2.385,3.627,2.385,6.907v11.977
			c0,1.339-1.193,2.482-2.534,2.482c-1.441,0-2.534-1.144-2.534-2.482V26.642c0-1.937-0.398-3.577-1.293-4.67
			c-0.746-0.845-1.888-1.392-3.478-1.392c-1.64,0-3.032,0.746-3.827,2.037c-0.794,1.292-1.092,3.081-1.092,5.218v9.492
			c0,1.339-1.192,2.482-2.535,2.482c-1.441,0-2.533-1.144-2.533-2.482V26.642c0-1.937-0.398-3.577-1.292-4.67
			c-0.746-0.845-1.888-1.392-3.478-1.392c-1.64,0-3.031,0.795-3.826,2.187c-0.745,1.292-1.043,3.08-1.093,5.267v9.243
			c0,1.388-1.193,2.533-2.534,2.533c-1.441,0-2.534-1.145-2.534-2.533V18.742C-6.282,17.351-5.188,16.258-3.747,16.258z"/>
		<path fill="#FFFFFF" d="M34.763,27.14c2.783-1.143,6.46-1.49,9.541-1.739v-0.597c0-1.59-0.298-2.583-0.944-3.379
			c-0.795-0.943-1.988-1.292-3.33-1.292c-1.689,0-3.08,0.447-4.223,0.944c-1.144,0.497-1.741,0.794-2.435,0.794
			c-1.043,0-1.838-0.794-1.838-1.837c0-1.292,1.192-1.988,2.633-2.584c1.838-0.746,4.074-1.243,6.41-1.243
			c2.236,0,5.018,0.448,6.907,2.535c1.192,1.342,1.887,3.18,1.887,6.062v12.473c0,1.388-1.192,2.485-2.535,2.485
			c-1.042,0-1.937-0.547-2.335-1.392c-2.037,1.094-4.025,1.392-6.31,1.392c-4.025,0-7.801-2.386-7.801-6.808
			C30.39,29.923,32.229,28.182,34.763,27.14z M44.303,34.743v-5.814c-5.367,0.298-9.044,1.292-9.044,3.926
			c0,2.187,2.187,3.177,4.522,3.177C41.272,36.032,42.862,35.587,44.303,34.743z"/>
		<path fill="#FFFFFF" d="M52.999,7.512c0-1.392,1.143-2.484,2.534-2.484c1.441,0,2.534,1.093,2.534,2.484v29.765
			c0,1.388-1.142,2.485-2.534,2.485c-1.391,0-2.534-1.097-2.534-2.485V7.512z"/>
		<path fill="#FFFFFF" d="M63.93,16.656v-3.528c0-1.392,1.143-2.485,2.534-2.485c1.391,0,2.584,1.094,2.584,2.485v3.528h5.665
			c1.043,0,1.936,0.895,1.936,2.037c0,1.094-0.893,1.989-1.936,1.989h-5.665v10.831c0,2.634,0.895,3.976,3.18,3.976
			c2.186,0,2.882-1.639,4.373-1.639c1.292,0,1.938,0.946,1.938,2.037c0,1.242-1.242,2.235-2.732,2.931
			c-1.342,0.596-2.932,0.946-4.522,0.946c-5.366,0-7.354-3.479-7.354-7.802V20.68h-1.888c-1.093,0-1.937-0.895-1.937-1.988
			c0-1.143,0.845-2.037,1.937-2.037L63.93,16.656L63.93,16.656z"/>
	</g>
	<path fill="#FFFFFF" d="M113.719,14.072c0-9.83-7.998-17.828-17.827-17.828c-1.049,0-1.898,0.849-1.898,1.896
		s0.849,1.896,1.898,1.896c7.738,0,14.033,6.296,14.033,14.035s-6.295,14.036-14.033,14.036c-1.049,0-1.898,0.847-1.898,1.896v5.645
		h-5.33c-1.048,0-1.897,0.848-1.897,1.896c0,1.045,0.85,1.896,1.897,1.896h15.773c1.046,0,1.896-0.851,1.896-1.896
		c0-1.048-0.85-1.896-1.896-1.896h-6.65V31.8C106.729,30.85,113.719,23.26,113.719,14.072z"/>
	<path fill="#FFFFFF" d="M95.892,3.819c-5.664,0-10.254,4.59-10.254,10.253c0,2.688,1.036,5.135,2.729,6.963l-0.977,6.829
		l5.346-4.037c0.993,0.321,2.054,0.497,3.156,0.497c5.663,0,10.253-4.591,10.253-10.253C106.145,8.408,101.554,3.819,95.892,3.819z"
		/>
</g>
</svg>
