<?xml version="1.0" encoding="utf-8"?>
<!-- Generator: Adobe Illustrator 15.1.0, SVG Export Plug-In . SVG Version: 6.00 Build 0)  -->
<!DOCTYPE svg PUBLIC "-//W3C//DTD SVG 1.1//EN" "http://www.w3.org/Graphics/SVG/1.1/DTD/svg11.dtd">
<svg version="1.1" id="Layer_1" xmlns="http://www.w3.org/2000/svg" xmlns:xlink="http://www.w3.org/1999/xlink" x="0px" y="0px"
	 width="240px" height="87.229px" viewBox="0 0 240 87.229" enable-background="new 0 0 240 87.229" xml:space="preserve">
<g>
	<g>
		<path fill="#777777" d="M5.274,40.153c2.88,0,5.065,2.185,5.065,4.965v0.1c2.88-3.376,7.35-5.065,12.216-5.065
			c3.377,0,6.555,0.695,9.335,2.383c2.285,1.391,4.073,3.278,5.166,5.562c1.291-1.986,3.178-4.271,5.959-5.86
			c2.582-1.489,5.661-2.085,9.039-2.085c4.667,0,9.236,1.291,12.513,4.37c2.979,2.782,4.767,7.251,4.767,13.805v23.936
			c0,2.681-2.384,4.966-5.064,4.966c-2.881,0-5.066-2.285-5.066-4.966V60.91c0-3.873-0.794-7.15-2.583-9.335
			c-1.49-1.688-3.774-2.781-6.952-2.781c-3.277,0-6.059,1.49-7.648,4.071c-1.588,2.583-2.184,6.159-2.184,10.429v18.97
			c0,2.681-2.383,4.966-5.065,4.966c-2.881,0-5.065-2.285-5.065-4.966V60.91c0-3.873-0.795-7.15-2.582-9.335
			c-1.49-1.688-3.774-2.781-6.951-2.781c-3.278,0-6.06,1.589-7.649,4.37c-1.489,2.582-2.085,6.156-2.185,10.528v18.472
			c0,2.78-2.383,5.065-5.065,5.065c-2.88,0-5.065-2.285-5.065-5.065V45.119C0.209,42.338,2.394,40.153,5.274,40.153z"/>
		<path fill="#777777" d="M82.248,61.903c5.562-2.284,12.911-2.979,19.069-3.475v-1.192c0-3.179-0.596-5.165-1.887-6.754
			c-1.589-1.887-3.973-2.583-6.655-2.583c-3.376,0-6.157,0.894-8.441,1.887c-2.284,0.993-3.477,1.589-4.866,1.589
			c-2.085,0-3.675-1.589-3.675-3.674c0-2.583,2.383-3.973,5.264-5.165c3.675-1.49,8.144-2.483,12.811-2.483
			c4.47,0,10.032,0.894,13.807,5.065c2.382,2.682,3.772,6.356,3.772,12.118v24.928c0,2.78-2.383,4.966-5.065,4.966
			c-2.084,0-3.873-1.092-4.668-2.781c-4.072,2.185-8.044,2.781-12.613,2.781c-8.044,0-15.592-4.767-15.592-13.606
			C73.508,67.467,77.182,63.988,82.248,61.903z M101.316,77.1V65.479c-10.727,0.596-18.076,2.583-18.076,7.847
			c0,4.37,4.369,6.355,9.038,6.355C95.258,79.681,98.436,78.787,101.316,77.1z"/>
		<path fill="#777777" d="M118.697,22.673c0-2.781,2.285-4.966,5.065-4.966c2.88,0,5.065,2.185,5.065,4.966v59.491
			c0,2.78-2.283,4.966-5.065,4.966c-2.78,0-5.065-2.186-5.065-4.966V22.673z"/>
		<path fill="#777777" d="M140.546,40.948v-7.052c0-2.781,2.285-4.966,5.066-4.966c2.779,0,5.165,2.185,5.165,4.966v7.052H162.1
			c2.086,0,3.871,1.788,3.871,4.072c0,2.185-1.785,3.974-3.871,3.974h-11.322v21.65c0,5.264,1.786,7.945,6.355,7.945
			c4.369,0,5.761-3.277,8.74-3.277c2.583,0,3.873,1.889,3.873,4.073c0,2.481-2.482,4.468-5.462,5.858
			c-2.682,1.19-5.859,1.887-9.038,1.887c-10.726,0-14.7-6.952-14.7-15.592V48.993h-3.773c-2.185,0-3.871-1.789-3.871-3.974
			c0-2.284,1.687-4.072,3.871-4.072H140.546z"/>
	</g>
	<path fill="#777777" d="M240.062,35.783c0-19.648-15.985-35.633-35.633-35.633c-2.094,0-3.792,1.697-3.792,3.79
		c0,2.093,1.698,3.791,3.792,3.791c15.467,0,28.052,12.584,28.052,28.053c0,15.469-12.585,28.054-28.052,28.054
		c-2.094,0-3.792,1.694-3.792,3.789v11.282h-10.655c-2.094,0-3.79,1.697-3.79,3.791c0,2.092,1.696,3.789,3.79,3.789h31.529
		c2.092,0,3.79-1.697,3.79-3.789c0-2.094-1.698-3.791-3.79-3.791h-13.292v-7.692C226.092,69.319,240.062,54.15,240.062,35.783z"/>
	<path fill="#FEBB1F" d="M204.429,15.29c-11.319,0-20.493,9.175-20.493,20.493c0,5.375,2.07,10.263,5.455,13.918l-1.953,13.652
		l10.684-8.07c1.986,0.642,4.106,0.993,6.308,0.993c11.317,0,20.492-9.176,20.492-20.494S215.746,15.29,204.429,15.29z"/>
</g>
</svg>
