<svg xmlns="http://www.w3.org/2000/svg" width="82.71" height="82.591" viewBox="0 0 82.71 82.591">
  <g id="Group_12" data-name="Group 12" transform="translate(-1185.146 -1747.36)">
    <path id="Path_24" data-name="Path 24" d="M1261.986,1829.2H1230.27l-10.1-65h41.814a5.12,5.12,0,0,1,5.12,5.12v54.756A5.12,5.12,0,0,1,1261.986,1829.2Z" fill="none" stroke="#212121" stroke-linejoin="round" stroke-width="1.5"/>
    <path id="Path_25" data-name="Path 25" d="M1230.27,1829.2l13.938-15.307h-19.2Z" fill="#fff" stroke="#212121" stroke-linecap="round" stroke-linejoin="round" stroke-width="1.5"/>
    <path id="Path_26" data-name="Path 26" d="M1255.3,1786.439h6.685v-3.129h-15.218v-5.049h-5.12v5.12H1233.4v3.058h18.2a23.567,23.567,0,0,1-5.49,10.017,26.877,26.877,0,0,1-4.252-6.177h-4.053a36.2,36.2,0,0,0,3.342,5.689,33.43,33.43,0,0,0,2.515,3.032c-3.362,3.44-5.217,5.146-5.217,5.146l2.56,2.133s2.357-2.129,4.968-4.783c4.239,4.485,9.538,9.69,9.538,9.69l2.418-2.631s-3.129-2.987-8.889-8.889c-.231-.237-.452-.468-.669-.7.951-1.046,1.85-2.1,2.589-3.072A25.81,25.81,0,0,0,1255.3,1786.439Z" fill="#ffd973"/>
    <path id="Path_27" data-name="Path 27" d="M1191.016,1748.11h32l21.191,65.784h-53.192a5.12,5.12,0,0,1-5.12-5.12V1753.23A5.121,5.121,0,0,1,1191.016,1748.11Z" fill="#fff" stroke="#212121" stroke-linejoin="round" stroke-width="1.5"/>
    <path id="Path_28" data-name="Path 28" d="M1208.582,1778.112c0,1.733,0,3.466,0,5.2h7.259a6.254,6.254,0,0,1-2.667,4.114,7.619,7.619,0,0,1-2.933,1.159,8.71,8.71,0,0,1-3.179-.01,7.837,7.837,0,0,1-2.966-1.281,8.275,8.275,0,0,1-3.053-4.091,8.068,8.068,0,0,1,0-5.187,8.269,8.269,0,0,1,1.934-3.141,7.823,7.823,0,0,1,7.889-2.05,7.216,7.216,0,0,1,2.873,1.687c.819-.814,1.633-1.633,2.451-2.449.429-.439.879-.859,1.294-1.31a12.866,12.866,0,0,0-4.287-2.656,13.346,13.346,0,0,0-16.52,6.532,13.307,13.307,0,0,0,0,11.962,13.424,13.424,0,0,0,3.619,4.448,13.259,13.259,0,0,0,4.841,2.441,14.242,14.242,0,0,0,6.815.073,11.75,11.75,0,0,0,8.824-8.368,15.653,15.653,0,0,0,.34-7.072Q1214.849,1778.109,1208.582,1778.112Z" fill="#0066e7"/>
  </g>
</svg>
