<svg xmlns="http://www.w3.org/2000/svg" width="60.544" height="76.691" viewBox="0 0 60.544 76.691">
  <g id="Group_3" data-name="Group 3" transform="translate(-553.507 -1751.191)">
    <path id="Path_9" data-name="Path 9" d="M554.819,1758.659h20.052a38.037,38.037,0,0,1-20.052,19.4m10.025-19.4v-6.468" fill="none" stroke="#0066e7" stroke-linecap="round" stroke-linejoin="round" stroke-width="2"/>
    <path id="Path_10" data-name="Path 10" d="M566.682,1770.265a44.248,44.248,0,0,0,9.2,7.936" fill="none" stroke="#0066e7" stroke-linecap="round" stroke-linejoin="round" stroke-width="2"/>
    <path id="Path_11" data-name="Path 11" d="M589.822,1826.588l9.327-24.069h4.279l9.329,24.069m-19.287-9.414,15.638,0" fill="none" stroke="#0066e7" stroke-linecap="round" stroke-linejoin="round" stroke-width="2"/>
    <path id="Path_12" data-name="Path 12" d="M581.484,1764.47a25.076,25.076,0,0,1,27.024,30.722M588.016,1758.8l-6.532,5.666,6.4,5.623" fill="none" stroke="#212121" stroke-linecap="round" stroke-linejoin="round" stroke-width="2"/>
    <path id="Path_13" data-name="Path 13" d="M586.752,1814.319a25.078,25.078,0,0,1-27.024-30.722m20.493,36.386,6.531-5.664-6.4-5.626" fill="none" stroke="#ffd973" stroke-linecap="round" stroke-linejoin="round" stroke-width="2"/>
  </g>
</svg>
