<?xml version="1.0" encoding="utf-8"?>
<!-- Generator: Adobe Illustrator 25.2.0, SVG Export Plug-In . SVG Version: 6.00 Build 0)  -->
<svg version="1.1" id="Layer_1" xmlns="http://www.w3.org/2000/svg" xmlns:xlink="http://www.w3.org/1999/xlink" x="0px" y="0px"
	 viewBox="0 0 240 87.2" style="enable-background:new 0 0 240 87.2;" xml:space="preserve">
<style type="text/css">
	.st0{fill:#0066E7;}
	.st1{fill:#FFD973;}
</style>
<g>
	<g>
		<path class="st0" d="M5.3,40.2c2.9,0,5.1,2.2,5.1,5v0.1c2.9-3.4,7.4-5.1,12.2-5.1c3.4,0,6.6,0.7,9.3,2.4c2.3,1.4,4.1,3.3,5.2,5.6
			c1.3-2,3.2-4.3,6-5.9c2.6-1.5,5.7-2.1,9-2.1c4.7,0,9.2,1.3,12.5,4.4c3,2.8,4.8,7.3,4.8,13.8v23.9c0,2.7-2.4,5-5.1,5
			c-2.9,0-5.1-2.3-5.1-5V60.9c0-3.9-0.8-7.2-2.6-9.3c-1.5-1.7-3.8-2.8-7-2.8c-3.3,0-6.1,1.5-7.6,4.1c-1.6,2.6-2.2,6.2-2.2,10.4v19
			c0,2.7-2.4,5-5.1,5c-2.9,0-5.1-2.3-5.1-5V60.9c0-3.9-0.8-7.2-2.6-9.3c-1.5-1.7-3.8-2.8-7-2.8c-3.3,0-6.1,1.6-7.6,4.4
			c-1.5,2.6-2.1,6.2-2.2,10.5v18.5c0,2.8-2.4,5.1-5.1,5.1c-2.9,0-5.1-2.3-5.1-5.1v-37C0.2,42.3,2.4,40.2,5.3,40.2z"/>
		<path class="st0" d="M82.2,61.9c5.6-2.3,12.9-3,19.1-3.5v-1.2c0-3.2-0.6-5.2-1.9-6.8c-1.6-1.9-4-2.6-6.7-2.6
			c-3.4,0-6.2,0.9-8.4,1.9c-2.3,1-3.5,1.6-4.9,1.6c-2.1,0-3.7-1.6-3.7-3.7c0-2.6,2.4-4,5.3-5.2c3.7-1.5,8.1-2.5,12.8-2.5
			c4.5,0,10,0.9,13.8,5.1c2.4,2.7,3.8,6.4,3.8,12.1v24.9c0,2.8-2.4,5-5.1,5c-2.1,0-3.9-1.1-4.7-2.8c-4.1,2.2-8,2.8-12.6,2.8
			c-8,0-15.6-4.8-15.6-13.6C73.5,67.5,77.2,64,82.2,61.9z M101.3,77.1V65.5c-10.7,0.6-18.1,2.6-18.1,7.8c0,4.4,4.4,6.4,9,6.4
			C95.3,79.7,98.4,78.8,101.3,77.1z"/>
		<path class="st0" d="M118.7,22.7c0-2.8,2.3-5,5.1-5c2.9,0,5.1,2.2,5.1,5v59.5c0,2.8-2.3,5-5.1,5c-2.8,0-5.1-2.2-5.1-5
			C118.7,82.2,118.7,22.7,118.7,22.7z"/>
		<path class="st0" d="M140.5,40.9v-7.1c0-2.8,2.3-5,5.1-5c2.8,0,5.2,2.2,5.2,5v7.1h11.3c2.1,0,3.9,1.8,3.9,4.1c0,2.2-1.8,4-3.9,4
			h-11.3v21.7c0,5.3,1.8,7.9,6.4,7.9c4.4,0,5.8-3.3,8.7-3.3c2.6,0,3.9,1.9,3.9,4.1c0,2.5-2.5,4.5-5.5,5.9c-2.7,1.2-5.9,1.9-9,1.9
			c-10.7,0-14.7-7-14.7-15.6V49h-3.8c-2.2,0-3.9-1.8-3.9-4c0-2.3,1.7-4.1,3.9-4.1L140.5,40.9L140.5,40.9z"/>
	</g>
	<path class="st0" d="M240.1,35.8c0-19.6-16-35.6-35.6-35.6c-2.1,0-3.8,1.7-3.8,3.8s1.7,3.8,3.8,3.8c15.5,0,28.1,12.6,28.1,28.1
		s-12.6,28.1-28.1,28.1c-2.1,0-3.8,1.7-3.8,3.8v11.3H190c-2.1,0-3.8,1.7-3.8,3.8c0,2.1,1.7,3.8,3.8,3.8h31.5c2.1,0,3.8-1.7,3.8-3.8
		c0-2.1-1.7-3.8-3.8-3.8h-13.3v-7.7C226.1,69.3,240.1,54.2,240.1,35.8z"/>
	<path class="st1" d="M204.4,15.3c-11.3,0-20.5,9.2-20.5,20.5c0,5.4,2.1,10.3,5.5,13.9l-2,13.7l10.7-8.1c2,0.6,4.1,1,6.3,1
		c11.3,0,20.5-9.2,20.5-20.5S215.7,15.3,204.4,15.3z"/>
</g>
</svg>
