<svg xmlns="http://www.w3.org/2000/svg" width="86.324" height="85.121" viewBox="0 0 86.324 85.121">
  <g id="Group_11" data-name="Group 11" transform="translate(-1183.339 -1986.595)">
    <path id="Path_18" data-name="Path 18" d="M1231.614,1987.345h26.476a10.857,10.857,0,0,1,10.823,10.825V2008.2a10.856,10.856,0,0,1-10.823,10.822h-7.331l-18.494,8.22,3.828-8.22h-4.479a10.855,10.855,0,0,1-10.822-10.822V1998.17a10.857,10.857,0,0,1,10.822-10.825Zm-1.961,11.205h10.618a20.135,20.135,0,0,1-10.618,10.274m5.309-10.274v-3.426" fill="none" stroke="#ffd973" stroke-linecap="round" stroke-linejoin="round" stroke-width="1.5"/>
    <path id="Path_19" data-name="Path 19" d="M1235.937,2004.695a23.328,23.328,0,0,0,4.868,4.2" fill="none" stroke="#ffd973" stroke-linecap="round" stroke-linejoin="round" stroke-width="1.5"/>
    <path id="Path_20" data-name="Path 20" d="M1247.9,2008.815l4.942-12.748h2.266l4.939,12.748m-10.212-4.989,8.281,0" fill="none" stroke="#ffd973" stroke-linecap="round" stroke-linejoin="round" stroke-width="1.5"/>
    <path id="Path_21" data-name="Path 21" d="M1240.394,2029.165v41.8h-56.305v-41.8h41.82m14.232,0h.253m0-.113v.113h-.253m-14.232,0h-41.82V2018.1h35.257" fill="none" stroke="#212121" stroke-linecap="round" stroke-linejoin="round" stroke-width="1.5"/>
    <line id="Line_5" data-name="Line 5" x1="3.199" y2="3.195" transform="translate(1189.547 2022.035)" fill="none" stroke="#0066e7" stroke-linecap="round" stroke-linejoin="round" stroke-width="1.5"/>
    <line id="Line_6" data-name="Line 6" x1="3.199" y1="3.195" transform="translate(1189.547 2022.035)" fill="none" stroke="#0066e7" stroke-linecap="round" stroke-linejoin="round" stroke-width="1.5"/>
    <line id="Line_7" data-name="Line 7" x1="4.022" transform="translate(1198.036 2023.633)" fill="none" stroke="#0066e7" stroke-linecap="round" stroke-linejoin="round" stroke-width="1.5"/>
    <path id="Path_22" data-name="Path 22" d="M1201.52,2041.491l-7.639,7.636,7.639,7.636" fill="none" stroke="#0066e7" stroke-linecap="round" stroke-linejoin="round" stroke-width="1.5"/>
    <path id="Path_23" data-name="Path 23" d="M1222.963,2041.491l7.64,7.636-7.64,7.636" fill="none" stroke="#0066e7" stroke-linecap="round" stroke-linejoin="round" stroke-width="1.5"/>
    <line id="Line_8" data-name="Line 8" x1="8.589" y2="14.686" transform="translate(1207.947 2041.783)" fill="none" stroke="#0066e7" stroke-linecap="round" stroke-linejoin="round" stroke-width="1.5"/>
  </g>
</svg>
