<?xml version="1.0" encoding="iso-8859-1"?>
<!-- Generator: Adobe Illustrator 19.0.0, SVG Export Plug-In . SVG Version: 6.00 Build 0)  -->
<svg xmlns="http://www.w3.org/2000/svg" xmlns:xlink="http://www.w3.org/1999/xlink" version="1.1" id="Layer_1" x="0px" y="0px" viewBox="0 0 512 512" style="enable-background:new 0 0 512 512;" xml:space="preserve" width="512px" height="512px">
<g>
	<g>
		<path d="M263.945,74.543c-96.512,0-175.032,78.52-175.032,175.032s78.52,175.032,175.032,175.032    c96.514,0,175.033-78.52,175.033-175.032S360.459,74.543,263.945,74.543z M406.731,233.882h-64.942    c-4.434-48.718-28.206-95.531-45.855-124.358C354.83,122.97,400.054,172.718,406.731,233.882z M310.245,233.882h-92.922    c5.084-46.205,30.848-91.94,46.601-116.195C279.604,141.92,305.205,187.584,310.245,233.882z M231.844,109.548    c-17.741,28.836-41.615,75.631-46.069,124.334h-64.615C127.833,172.758,173.004,123.032,231.844,109.548z M121.16,265.268h64.615    c4.454,48.703,28.328,95.498,46.069,124.334C173.004,376.118,127.833,326.394,121.16,265.268z M263.897,381.463    c-15.758-24.221-41.508-69.893-46.578-116.195h92.922C305.186,311.473,279.569,357.201,263.897,381.463z M295.934,389.627    c17.649-28.826,41.421-75.639,45.855-124.358h64.943C400.054,326.432,354.83,376.181,295.934,389.627z" fill="#829FD9"/>
	</g>
</g>
<g>
	<g>
		<path d="M438.587,73.413C391.246,26.072,328.303,0,261.352,0S131.458,26.072,84.117,73.413    c-40.473,40.473-66.052,94.052-72.026,150.87c-5.618,53.448,6.197,107.726,33.321,153.705L0,512l134.012-45.412    c45.979,27.123,100.251,38.938,153.705,33.32c56.818-5.973,110.398-31.552,150.87-72.025C485.928,380.542,512,317.598,512,250.649    C512,183.698,485.928,120.754,438.587,73.413z M416.393,405.69c-71.874,71.874-186.299,84.666-272.079,30.417l-6.331-4.004    l-87.858,29.772l29.771-87.858l-4.003-6.331c-54.251-85.778-41.458-200.204,30.416-272.079c85.49-85.49,224.594-85.49,310.083,0    C501.883,181.097,501.883,320.199,416.393,405.69z" fill="#829FD9"/>
	</g>
</g>
<g>
</g>
<g>
</g>
<g>
</g>
<g>
</g>
<g>
</g>
<g>
</g>
<g>
</g>
<g>
</g>
<g>
</g>
<g>
</g>
<g>
</g>
<g>
</g>
<g>
</g>
<g>
</g>
<g>
</g>
</svg>
