<?xml version="1.0" encoding="utf-8"?>
<!-- Generator: Adobe Illustrator 15.1.0, SVG Export Plug-In . SVG Version: 6.00 Build 0)  -->
<!DOCTYPE svg PUBLIC "-//W3C//DTD SVG 1.1//EN" "http://www.w3.org/Graphics/SVG/1.1/DTD/svg11.dtd">
<svg version="1.1" id="Layer_1" xmlns="http://www.w3.org/2000/svg" xmlns:xlink="http://www.w3.org/1999/xlink" x="0px" y="0px"
	 width="50.626px" height="77.878px" viewBox="0 0 50.626 77.878" enable-background="new 0 0 50.626 77.878" xml:space="preserve">
<path fill="#3137FD" d="M50.626,32.141C50.626,14.418,36.207,0,18.484,0c-1.888,0-3.419,1.531-3.419,3.418s1.531,3.419,3.419,3.419
	c13.952,0,25.304,11.351,25.304,25.304c0,13.954-11.352,25.305-25.304,25.305c-1.888,0-3.419,1.529-3.419,3.418V71.04H5.454
	c-1.889,0-3.419,1.531-3.419,3.42c0,1.887,1.53,3.418,3.419,3.418h28.438c1.888,0,3.419-1.531,3.419-3.418
	c0-1.889-1.531-3.42-3.419-3.42H21.903v-6.938C38.025,62.391,50.626,48.71,50.626,32.141z"/>
<path fill="#FEBB1F" d="M18.484,13.656C8.275,13.656,0,21.932,0,32.141c0,4.848,1.868,9.257,4.921,12.555L3.554,57.604l9.241-7.874
	c1.793,0.58,3.704,0.896,5.689,0.896c10.209,0,18.484-8.275,18.484-18.485C36.969,21.932,28.693,13.656,18.484,13.656z"/>
</svg>
